HIERARCHY
ROOT Hips
{
	OFFSET 0.000000 103.266502 0.000000
	CHANNELS 6 Xposition Yposition Zposition Xrotation Yrotation Zrotation 
	JOINT Spine
	{
		OFFSET -0.002400 12.777504 0.315300
		CHANNELS 3 Xrotation Yrotation Zrotation
		JOINT Spine1
		{
			OFFSET -0.002067 5.816869 0.032633
			CHANNELS 3 Xrotation Yrotation Zrotation
			JOINT Spine1_split
			{
				OFFSET -0.002067 5.816869 0.032633
				CHANNELS 3 Xrotation Yrotation Zrotation
				JOINT Spine2
				{
					OFFSET -0.002067 5.816869 0.032633
					CHANNELS 3 Xrotation Yrotation Zrotation
					JOINT Neck
					{
						OFFSET -0.003700 21.199493 -0.826900
						CHANNELS 3 Xrotation Yrotation Zrotation
						JOINT Head
						{
							OFFSET 0.000000 20.442200 4.834800
							CHANNELS 3 Xrotation Yrotation Zrotation
							JOINT HeadTop_End
							{
								OFFSET 0.000000 34.668396 4.968400
								CHANNELS 3 Xrotation Yrotation Zrotation
								End Site
								{
									OFFSET 0.000000 0.000000 0.000000
								}
							}
						}
					}
					JOINT LeftShoulder
					{
						OFFSET 3.288150 8.794197 -1.372250
						CHANNELS 3 Xrotation Yrotation Zrotation
						JOINT LeftShoulder_split
						{
							OFFSET 3.288150 8.794197 -1.372250
							CHANNELS 3 Xrotation Yrotation Zrotation
							JOINT LeftArm
							{
								OFFSET 11.953299 -2.279007 -0.146200
								CHANNELS 3 Xrotation Yrotation Zrotation
								JOINT LeftForeArm
								{
									OFFSET 18.448900 0.000000 0.000000
									CHANNELS 3 Xrotation Yrotation Zrotation
									JOINT LeftHand
									{
										OFFSET 29.527798 0.000000 0.000000
										CHANNELS 3 Xrotation Yrotation Zrotation
										JOINT LeftHandThumb1
										{
											OFFSET 10.739754 -2.369614 9.225399
											CHANNELS 3 Xrotation Yrotation Zrotation
											JOINT LeftHandThumb2
											{
												OFFSET 4.926170 -2.844131 2.844125
												CHANNELS 3 Xrotation Yrotation Zrotation
												JOINT LeftHandThumb3
												{
													OFFSET 4.614891 -2.664413 2.664409
													CHANNELS 3 Xrotation Yrotation Zrotation
													JOINT LeftHandThumb4
													{
														OFFSET 4.432465 -2.559082 2.559083
														CHANNELS 3 Xrotation Yrotation Zrotation
														End Site
														{
															OFFSET 0.000000 0.000000 0.000000
														}
													}
												}
											}
										}
										JOINT LeftHandIndex1
										{
											OFFSET 26.467674 0.187653 6.405298
											CHANNELS 3 Xrotation Yrotation Zrotation
											JOINT LeftHandIndex2
											{
												OFFSET 8.792900 0.000000 0.000000
												CHANNELS 3 Xrotation Yrotation Zrotation
												JOINT LeftHandIndex3
												{
													OFFSET 10.075203 0.000000 0.000000
													CHANNELS 3 Xrotation Yrotation Zrotation
													End Site
													{
														OFFSET 0.000000 0.000000 0.000000
													}
												}
											}
										}
										JOINT LeftHandMiddle1
										{
											OFFSET 25.764404 0.000000 0.000000
											CHANNELS 3 Xrotation Yrotation Zrotation
											JOINT LeftHandMiddle2
											{
												OFFSET 9.393974 0.000000 0.000000
												CHANNELS 3 Xrotation Yrotation Zrotation
												JOINT LeftHandMiddle3
												{
													OFFSET 10.771950 0.000000 0.000000
													CHANNELS 3 Xrotation Yrotation Zrotation
													End Site
													{
														OFFSET 0.000000 0.000000 0.000000
													}
												}
											}
										}
										JOINT LeftHandRing1
										{
											OFFSET 24.660927 0.144547 -6.225808
											CHANNELS 3 Xrotation Yrotation Zrotation
											JOINT LeftHandRing2
											{
												OFFSET 9.393799 0.000000 0.000000
												CHANNELS 3 Xrotation Yrotation Zrotation
												JOINT LeftHandRing3
												{
													OFFSET 9.928497 0.000000 0.000000
													CHANNELS 3 Xrotation Yrotation Zrotation
													End Site
													{
														OFFSET 0.000000 0.000000 0.000000
													}
												}
											}
										}
										JOINT LeftHandPinky1
										{
											OFFSET 23.655350 0.125290 -12.815412
											CHANNELS 3 Xrotation Yrotation Zrotation
											JOINT LeftHandPinky2
											{
												OFFSET 8.425102 0.000000 0.000000
												CHANNELS 3 Xrotation Yrotation Zrotation
												JOINT LeftHandPinky3
												{
													OFFSET 8.147003 0.000000 0.000000
													CHANNELS 3 Xrotation Yrotation Zrotation
													End Site
													{
														OFFSET 0.000000 0.000000 0.000000
													}
												}
											}
										}
									}
								}
							}
						}
					}
					JOINT RightShoulder
					{
						OFFSET -3.249400 8.794197 -1.372250
						CHANNELS 3 Xrotation Yrotation Zrotation
						JOINT RightShoulder_split
						{
							OFFSET -3.249400 8.794197 -1.372250
							CHANNELS 3 Xrotation Yrotation Zrotation
							JOINT RightArm
							{
								OFFSET -11.953299 -2.279007 -0.146200
								CHANNELS 3 Xrotation Yrotation Zrotation
								JOINT RightForeArm
								{
									OFFSET -18.448900 0.000000 0.000000
									CHANNELS 3 Xrotation Yrotation Zrotation
									JOINT RightHand
									{
										OFFSET -29.527802 0.000000 0.000000
										CHANNELS 3 Xrotation Yrotation Zrotation
										JOINT RightHandThumb1
										{
											OFFSET -10.739754 -2.369614 9.225399
											CHANNELS 3 Xrotation Yrotation Zrotation
											JOINT RightHandThumb2
											{
												OFFSET -4.926170 -2.844131 2.844125
												CHANNELS 3 Xrotation Yrotation Zrotation
												JOINT RightHandThumb3
												{
													OFFSET -4.614891 -2.664413 2.664409
													CHANNELS 3 Xrotation Yrotation Zrotation
													JOINT RightHandThumb4
													{
														OFFSET -4.432465 -2.559082 2.559083
														CHANNELS 3 Xrotation Yrotation Zrotation
														End Site
														{
															OFFSET 0.000000 0.000000 0.000000
														}
													}
												}
											}
										}
										JOINT RightHandIndex1
										{
											OFFSET -26.467674 0.187653 6.405298
											CHANNELS 3 Xrotation Yrotation Zrotation
											JOINT RightHandIndex2
											{
												OFFSET -8.792900 0.000000 0.000000
												CHANNELS 3 Xrotation Yrotation Zrotation
												JOINT RightHandIndex3
												{
													OFFSET -10.075203 0.000000 0.000000
													CHANNELS 3 Xrotation Yrotation Zrotation
													End Site
													{
														OFFSET 0.000000 0.000000 0.000000
													}
												}
											}
										}
										JOINT RightHandMiddle1
										{
											OFFSET -25.764404 0.000000 0.000000
											CHANNELS 3 Xrotation Yrotation Zrotation
											JOINT RightHandMiddle2
											{
												OFFSET -9.393974 0.000000 0.000000
												CHANNELS 3 Xrotation Yrotation Zrotation
												JOINT RightHandMiddle3
												{
													OFFSET -10.771950 0.000000 0.000000
													CHANNELS 3 Xrotation Yrotation Zrotation
													End Site
													{
														OFFSET 0.000000 0.000000 0.000000
													}
												}
											}
										}
										JOINT RightHandRing1
										{
											OFFSET -24.660927 0.144547 -6.225808
											CHANNELS 3 Xrotation Yrotation Zrotation
											JOINT RightHandRing2
											{
												OFFSET -9.393799 0.000000 0.000000
												CHANNELS 3 Xrotation Yrotation Zrotation
												JOINT RightHandRing3
												{
													OFFSET -9.928497 0.000000 0.000000
													CHANNELS 3 Xrotation Yrotation Zrotation
													End Site
													{
														OFFSET 0.000000 0.000000 0.000000
													}
												}
											}
										}
										JOINT RightHandPinky1
										{
											OFFSET -23.655350 0.125290 -12.815412
											CHANNELS 3 Xrotation Yrotation Zrotation
											JOINT RightHandPinky2
											{
												OFFSET -8.425102 0.000000 0.000000
												CHANNELS 3 Xrotation Yrotation Zrotation
												JOINT RightHandPinky3
												{
													OFFSET -8.147003 0.000000 0.000000
													CHANNELS 3 Xrotation Yrotation Zrotation
													End Site
													{
														OFFSET 0.000000 0.000000 0.000000
													}
												}
											}
										}
									}
								}
							}
						}
					}
				}
			}
		}
	}
	JOINT LeftUpLeg
	{
		OFFSET 11.394100 -6.187798 -0.413800
		CHANNELS 3 Xrotation Yrotation Zrotation
		JOINT LeftLeg
		{
			OFFSET 0.430247 -32.302673 3.732800
			CHANNELS 3 Xrotation Yrotation Zrotation
			JOINT LeftFoot
			{
				OFFSET -0.430247 -48.264931 -6.423300
				CHANNELS 3 Xrotation Yrotation Zrotation
				JOINT LeftToeBase
				{
					OFFSET 4.230900 -16.068199 23.438400
					CHANNELS 3 Xrotation Yrotation Zrotation
					JOINT LeftToe_End
					{
						OFFSET 4.510700 0.695400 19.974600
						CHANNELS 3 Xrotation Yrotation Zrotation
						End Site
						{
							OFFSET 0.000000 0.000000 0.000000
						}
					}
				}
			}
		}
	}
	JOINT RightUpLeg
	{
		OFFSET -11.333700 -6.187798 -0.413800
		CHANNELS 3 Xrotation Yrotation Zrotation
		JOINT RightLeg
		{
			OFFSET -0.430392 -32.302628 3.733000
			CHANNELS 3 Xrotation Yrotation Zrotation
			JOINT RightFoot
			{
				OFFSET 0.430392 -48.264973 -6.423500
				CHANNELS 3 Xrotation Yrotation Zrotation
				JOINT RightToeBase
				{
					OFFSET -4.230900 -16.068199 23.438400
					CHANNELS 3 Xrotation Yrotation Zrotation
					JOINT RightToe_End
					{
						OFFSET -4.510700 0.695400 19.974600
						CHANNELS 3 Xrotation Yrotation Zrotation
						End Site
						{
							OFFSET 0.000000 0.000000 0.000000
						}
					}
				}
			}
		}
	}
}
MOTION
Frames: 4
Frame Time: 0.016667
0.031070 91.362640 -0.028692 -1.735757 -17.065964 -1.909288 3.883817 2.410476 -0.401596 2.929113 2.056187 -0.138334 0.000000 0.000000 0.000000 2.894090 2.113000 -0.161224 1.137081 0.245404 5.249916 -1.998749 7.430611 1.905184 0.000000 0.000001 0.000000 1.375474 -4.867612 21.431197 0.000000 0.000000 0.000000 -66.234264 -43.614873 -65.822028 -0.000009 -37.698396 -0.000006 -66.348587 -13.253374 -9.215225 22.601011 -28.107323 -14.151466 29.406819 28.726512 -29.411754 9.113562 14.378720 -9.922563 0.000000 -0.000000 -0.000002 0.797680 3.221928 -27.804730 0.799567 3.225538 -27.838610 0.000001 -0.000000 -0.000000 0.796765 3.220235 -27.788693 0.800484 3.227235 -27.854645 -0.000000 0.000000 -0.000000 0.797681 3.221926 -27.804723 0.799567 3.225538 -27.838613 0.000001 0.000000 -0.000000 2.684941 6.814140 -27.459476 0.809056 -0.835558 -28.291863 -0.000001 -0.000000 -0.000000 0.445411 -0.777910 -3.588726 0.000000 0.000000 0.000000 -96.770694 65.301137 91.341766 0.000002 28.227451 0.000008 -31.535687 -1.128101 -3.934983 40.606585 -3.110577 26.124230 -37.849514 -44.265018 -46.874980 -12.282867 -22.415223 -17.633356 -0.000000 -0.000002 -0.000001 3.635330 -6.110998 61.464463 7.728623 -6.904465 96.464442 0.000004 -0.000000 -0.000001 3.635334 -6.110992 61.464456 7.728606 -6.904473 96.464449 0.000001 0.000002 0.000001 3.635326 -6.110994 61.464456 7.728622 -6.904464 96.464449 -0.000000 -0.000000 -0.000002 3.635328 -6.111001 61.464463 7.728622 -6.904463 96.464442 0.000003 0.000001 0.000002 -41.934739 16.307992 15.461105 49.494235 0.935549 8.337510 -8.595290 0.599357 -7.458824 -0.000045 0.000003 -0.000002 -0.000000 -0.000000 -0.000000 -36.383260 -21.458603 -15.333184 48.149043 -3.043982 -10.216227 -12.431637 -1.475164 11.365167 -0.044155 0.000010 -0.000006 -0.000000 0.000000 0.000000 
0.037572 91.375175 -0.033988 -1.680061 -17.026630 -1.929273 3.848250 2.391364 -0.415401 2.899331 2.043579 -0.147449 0.000000 0.000000 0.000000 2.864489 2.099782 -0.170384 1.085835 0.256951 5.236186 -1.804759 7.498499 2.008297 -0.000000 0.000000 0.000001 1.287688 -4.591922 21.372331 0.000000 0.000000 0.000000 -66.225938 -43.832773 -66.089566 0.000011 -37.650089 0.000004 -66.346299 -13.265067 -9.206526 22.600995 -28.107321 -14.151468 29.406819 28.726512 -29.411775 9.113586 14.378725 -9.922568 -0.000002 -0.000001 0.000001 0.797655 3.221946 -27.804725 0.799601 3.225525 -27.838615 0.000000 -0.000000 -0.000001 0.796766 3.220229 -27.788691 0.800505 3.227221 -27.854649 -0.000001 -0.000000 0.000000 0.797653 3.221944 -27.804725 0.799600 3.225523 -27.838615 0.000000 0.000000 0.000000 2.684952 6.814139 -27.459483 0.809053 -0.835567 -28.291866 -0.000001 -0.000000 -0.000000 0.432491 -0.830610 -3.627957 0.000000 0.000000 0.000000 -97.091631 65.466182 91.848347 0.000004 28.156152 0.000001 -31.844620 -1.022887 -3.997969 40.606588 -3.110577 26.124234 -37.849514 -44.265022 -46.874980 -12.282870 -22.415224 -17.633354 -0.000000 -0.000001 0.000000 3.635328 -6.110998 61.464463 7.728621 -6.904462 96.464442 0.000001 -0.000000 0.000002 3.635328 -6.110991 61.464463 7.728609 -6.904474 96.464449 -0.000000 0.000001 -0.000000 3.635327 -6.110995 61.464463 7.728618 -6.904458 96.464442 -0.000000 0.000001 0.000000 3.635327 -6.111000 61.464456 7.728621 -6.904458 96.464442 0.000002 0.000000 0.000002 -42.018426 16.365219 15.427140 49.468434 0.890011 8.463106 -8.571429 0.599679 -7.468210 -0.000045 0.000003 -0.000002 0.000000 -0.000000 -0.000000 -36.299242 -21.294616 -15.158071 48.053939 -3.286548 -10.215567 -12.392884 -1.486552 11.460091 -0.042983 -0.000010 0.000002 -0.000000 -0.000000 0.000000 
0.043760 91.387100 -0.043543 -1.626495 -16.983305 -1.944155 3.801866 2.363278 -0.435907 2.860567 2.025404 -0.161203 0.000000 0.000000 0.000000 2.825897 2.080953 -0.184224 1.012361 0.275951 5.218361 -1.628340 7.575836 2.118157 0.000000 0.000000 -0.000000 1.196430 -4.307693 21.316488 0.000000 0.000000 0.000000 -66.220296 -44.104693 -66.348758 0.000011 -37.562338 0.000011 -66.391351 -13.293682 -9.237441 22.601011 -28.107332 -14.151472 29.406809 28.726515 -29.411754 9.113579 14.378718 -9.922564 -0.000001 -0.000002 0.000001 0.797671 3.221929 -27.804734 0.799606 3.225525 -27.838615 0.000001 -0.000000 -0.000000 0.796786 3.220210 -27.788693 0.800492 3.227230 -27.854650 0.000001 -0.000000 -0.000000 0.797670 3.221928 -27.804734 0.799605 3.225524 -27.838615 -0.000000 0.000000 -0.000000 2.684961 6.814126 -27.459480 0.809040 -0.835558 -28.291876 0.000001 0.000000 0.000000 0.420647 -0.879267 -3.679279 0.000000 0.000000 0.000000 -97.395690 65.635352 92.333373 0.000007 28.079222 -0.000006 -32.174839 -0.927884 -4.091881 40.606585 -3.110577 26.124229 -37.849514 -44.265018 -46.874977 -12.282867 -22.415223 -17.633359 0.000001 -0.000001 -0.000000 3.635328 -6.111001 61.464463 7.728622 -6.904464 96.464449 0.000001 0.000001 -0.000000 3.635328 -6.110992 61.464463 7.728603 -6.904464 96.464449 -0.000004 0.000002 0.000001 3.635323 -6.110996 61.464463 7.728623 -6.904459 96.464442 0.000002 -0.000001 -0.000003 3.635330 -6.111002 61.464463 7.728621 -6.904468 96.464442 -0.000001 0.000000 0.000002 -42.098602 16.424045 15.378724 49.437842 0.848225 8.597892 -8.542096 0.600977 -7.481225 -0.000045 0.000003 -0.000002 -0.000000 -0.000000 -0.000000 -36.220070 -21.123077 -14.986975 47.962664 -3.546774 -10.214601 -12.352610 -1.496479 11.557036 -0.041689 0.000010 0.000000 -0.000000 -0.000000 0.000000 
0.049550 91.399216 -0.054757 -1.578249 -16.935541 -1.960867 3.753399 2.336516 -0.451656 2.820242 2.007301 -0.173256 0.000000 0.000000 0.000000 2.785799 2.062074 -0.196305 0.943601 0.291474 5.199658 -1.444416 7.647644 2.241821 -0.000000 0.000000 -0.000000 1.103782 -4.021743 21.257214 0.000000 0.000000 0.000000 -66.219169 -44.416993 -66.594700 -0.000010 -37.422234 -0.000007 -66.480540 -13.341992 -9.321743 22.601017 -28.107342 -14.151474 29.406836 28.726515 -29.411782 9.113579 14.378718 -9.922566 0.000000 0.000004 0.000002 0.797701 3.221913 -27.804730 0.799577 3.225523 -27.838606 0.000000 0.000000 -0.000000 0.796793 3.220205 -27.788705 0.800514 3.227222 -27.854655 0.000000 -0.000000 -0.000000 0.797701 3.221912 -27.804730 0.799577 3.225522 -27.838605 -0.000001 -0.000000 -0.000000 2.684980 6.814112 -27.459483 0.809054 -0.835570 -28.291875 0.000001 0.000000 0.000000 0.410452 -0.920574 -3.746363 0.000000 0.000000 0.000000 -97.673611 65.806591 92.793400 -0.000002 28.006409 0.000003 -32.526341 -0.855761 -4.208731 40.606585 -3.110577 26.124227 -37.849517 -44.265018 -46.874980 -12.282869 -22.415224 -17.633356 -0.000000 -0.000002 -0.000000 3.635326 -6.110998 61.464463 7.728626 -6.904465 96.464449 -0.000002 0.000001 0.000000 3.635324 -6.110991 61.464463 7.728610 -6.904477 96.464449 -0.000002 0.000001 0.000003 3.635321 -6.110995 61.464463 7.728621 -6.904456 96.464449 -0.000005 0.000001 -0.000002 3.635330 -6.111001 61.464463 7.728624 -6.904465 96.464442 -0.000003 0.000001 0.000002 -42.173379 16.478161 15.331884 49.406962 0.802074 8.726175 -8.511005 0.603359 -7.491208 -0.000045 0.000003 -0.000002 -0.000000 -0.000000 -0.000000 -36.136246 -20.952435 -14.815988 47.871095 -3.813208 -10.213455 -12.311665 -1.507799 11.653961 -0.040249 0.000022 0.000003 -0.000000 0.000000 -0.000000 
